<svg fill="none" xmlns="http://www.w3.org/2000/svg" viewBox="0 0 16 17">
  <g clip-path="url(#clip0_274_9916)">
    <path d="M15.7077 14.7968L12.6109 11.6987C14.928 8.60222 14.2962 4.21356 11.1997 1.89641C8.1032 -0.420736 3.71454 0.211075 1.39739 3.30759C-0.919759 6.40411 -0.287949 10.7928 2.80857 13.1099C5.29595 14.9712 8.71231 14.9712 11.1997 13.1099L14.2978 16.208C14.6871 16.5973 15.3183 16.5973 15.7076 16.208C16.097 15.8187 16.097 15.1874 15.7076 14.7982L15.7077 14.7968ZM7.02996 12.512C4.27792 12.512 2.04698 10.281 2.04698 7.52898C2.04698 4.77695 4.27792 2.546 7.02996 2.546C9.782 2.546 12.0129 4.77695 12.0129 7.52898C12.01 10.2798 9.78078 12.509 7.02996 12.512Z" fill="currentColor"/>
  </g>
  <defs>
    <clipPath id="clip0_274_9916">
      <rect width="16" height="16" fill="currentColor" transform="translate(0 0.5)"/>
    </clipPath>
  </defs>
</svg>