<svg width="17" height="16" viewBox="0 0 17 16" fill="none" xmlns="http://www.w3.org/2000/svg">
<path d="M14.1468 8.71218C14.5401 8.71218 14.8589 8.39334 14.8589 8.00002C14.8589 7.60671 14.5401 7.28787 14.1468 7.28787L9.21216 7.28787L9.21216 2.35327C9.21216 1.95996 8.89331 1.64111 8.5 1.64111C8.10669 1.64111 7.78784 1.95996 7.78784 2.35327L7.78784 7.28787L2.85325 7.28787C2.45993 7.28787 2.14109 7.60671 2.14109 8.00002C2.14109 8.39334 2.45993 8.71218 2.85325 8.71218L7.78784 8.71218V13.6468C7.78784 14.0401 8.10669 14.3589 8.5 14.3589C8.89331 14.3589 9.21216 14.0401 9.21216 13.6468V8.71218L14.1468 8.71218Z" fill="currentColor"/>
</svg>
